# xmcd
#
# Track frame offsets:
#   150
#   118723
#   209384
#
# Disc length: 4127 seconds
#
# Revision: 0
# Processed by: cddbd v1.5.1PL2 Copyright (c) Steve Scherf et al.
# Submitted via: GXTranscoder 2.23.2863
#
DISCID=25101d03
DTITLE=DIDDL - und die verflixte Sache mit der Liebe
DYEAR=2004
DGENRE=Children's Music
TTITLE0=stimmt nicht
TTITLE1=Finden
TTITLE2=das führt nicht dazu
EXTD=
EXTT0=
EXTT1=
EXTT2=
PLAYORDER=
